<?xml version="1.0" encoding="utf-8"?>
<svg version="1.1" id="header" xmlns="http://www.w3.org/2000/svg" xmlns:xlink="http://www.w3.org/1999/xlink" x="0px" y="0px"
	 viewBox="0 0 130 40" style="enable-background:new 0 0 130 40;" xml:space="preserve">
<style type="text/css">
	.st0{fill:none;}
	.st1{fill:#DADCE0;}
</style>
<path class="st0" d="M3.8,39.7c-1-0.3-1.6-0.6-2.4-1.5c-1-1-1.3-1.8-1.2-3.3c0-1,0.1-1.4,0.4-2c0.5-1.1,1.7-2.2,2.7-2.6l0.9-0.3
	l61.2,0l61.2,0l0.8,0.4c2,1.1,3,3.1,2.7,5.3c-0.3,1.6-1.3,2.9-2.9,3.7l-0.8,0.4l-60.8,0C12.5,40,4.5,39.9,3.8,39.7z"/>
<path class="st1" d="M3.6,39.6c-0.4-0.1-1.1-0.6-1.5-0.9c-2.7-2.3-2.2-6.5,0.9-8l1.1-0.5H65c45.6,0,61.1,0.1,61.7,0.2
	c0.4,0.1,1.2,0.6,1.6,0.9c2.8,2.4,1.9,7-1.6,8.3C125.6,40,4.7,40,3.6,39.6L3.6,39.6z"/>
</svg>
