<?xml version="1.0" encoding="utf-8"?>
<!-- Generator: Adobe Illustrator 25.0.0, SVG Export Plug-In . SVG Version: 6.00 Build 0)  -->
<svg version="1.1"
	 id="svg4765" xmlns:cc="http://creativecommons.org/ns#" xmlns:dc="http://purl.org/dc/elements/1.1/" xmlns:inkscape="http://www.inkscape.org/namespaces/inkscape" xmlns:rdf="http://www.w3.org/1999/02/22-rdf-syntax-ns#" xmlns:sodipodi="http://sodipodi.sourceforge.net/DTD/sodipodi-0.dtd" xmlns:svg="http://www.w3.org/2000/svg"
	 xmlns="http://www.w3.org/2000/svg" xmlns:xlink="http://www.w3.org/1999/xlink" x="0px" y="0px" viewBox="0 0 130 40"
	 style="enable-background:new 0 0 130 40;" xml:space="preserve">
<style type="text/css">
	.st0{fill:#DADCE0;fill-opacity:0;stroke:#1A73E8;stroke-width:0.4209;stroke-opacity:0;}
	.st1{fill:#DADCE0;}
</style>
<sodipodi:namedview  bordercolor="#666666" borderopacity="1" gridtolerance="10" guidetolerance="10" id="namedview4767" inkscape:current-layer="svg4765" inkscape:cx="76.144652" inkscape:cy="32.314819" inkscape:pageopacity="0" inkscape:pageshadow="2" inkscape:window-height="688" inkscape:window-maximized="0" inkscape:window-width="1297" inkscape:window-x="3486" inkscape:window-y="298" inkscape:zoom="4.8" objecttolerance="10" pagecolor="#ffffff" showgrid="false">
	</sodipodi:namedview>
<desc  id="desc4760">Created with Sketch.</desc>
<path id="path5330" inkscape:connector-curvature="0" class="st0" d="M3.8,39.7c-1-0.3-1.6-0.6-2.4-1.5c-1-1-1.3-1.8-1.2-3.3
	c0-1,0.1-1.4,0.4-2c0.5-1.1,1.7-2.2,2.7-2.6l0.8-0.3l61.2,0l61.2,0l0.8,0.4c2,1.1,3,3.1,2.7,5.3c-0.3,1.6-1.3,2.9-2.9,3.7l-0.8,0.4
	l-60.8,0C12.5,40,4.5,39.9,3.8,39.7z"/>
<path id="path5391" inkscape:connector-curvature="0" class="st1" d="M3.6,39.6c-0.4-0.1-1.1-0.6-1.5-0.9c-2.7-2.3-2.2-6.5,0.9-8
	l1.1-0.5H65c45.6,0,61.1,0.1,61.7,0.2c0.4,0.1,1.2,0.6,1.6,0.9c2.8,2.4,1.9,7-1.6,8.3C125.6,40,4.7,40,3.6,39.6L3.6,39.6z"/>
</svg>
